<svg width="20" height="20" viewBox="0 0 20 20" fill="none" xmlns="http://www.w3.org/2000/svg">
<path d="M5.625 9.375L10.245 3.6C10.485 3.3 10.8494 3.125 11.2338 3.125C11.9331 3.125 12.5 3.69188 12.5 4.39125V8.125H16.2513C17.4956 8.125 18.3938 9.3175 18.0525 10.515L16.4962 15.9681C16.3431 16.505 15.8531 16.875 15.2956 16.875H7.5L5.625 15.625V9.375ZM5.625 9.375H5.62563" stroke="#1A1A1A" stroke-width="1.5" stroke-miterlimit="10" stroke-linecap="round" stroke-linejoin="round"/>
<path d="M5.625 8.125H1.875V16.875H5.625V8.125Z" stroke="#1A1A1A" stroke-width="1.5" stroke-miterlimit="10" stroke-linecap="round" stroke-linejoin="round"/>
<path d="M3.75 15C4.09518 15 4.375 14.7202 4.375 14.375C4.375 14.0298 4.09518 13.75 3.75 13.75C3.40482 13.75 3.125 14.0298 3.125 14.375C3.125 14.7202 3.40482 15 3.75 15Z" fill="#1A1A1A"/>
</svg>
