<svg width="56" height="56" viewBox="0 0 56 56" fill="none" xmlns="http://www.w3.org/2000/svg">
<circle cx="28" cy="28" r="28" fill="#49945A"/>
<path d="M40.3801 26.0036L34.1869 19.8103C33.7872 19.4107 33.2558 19.1906 32.6905 19.1906C32.1252 19.1906 31.5938 19.4107 31.1941 19.8103C30.7948 20.2096 30.5749 20.741 30.5749 21.3068C30.5749 21.8725 30.7948 22.4039 31.1941 22.8032L33.7747 25.3838H18.1162C16.9494 25.3838 16 26.3331 16 27.5C16 28.6668 16.9494 29.6162 18.1162 29.6162H33.7747L31.1941 32.1969C30.3691 33.0219 30.369 34.3645 31.1941 35.1897C31.5938 35.5894 32.1252 35.8095 32.6905 35.8095C33.2557 35.8095 33.7872 35.5894 34.1869 35.1897L40.38 28.9965C40.7798 28.5969 41 28.0655 41 27.5C41 26.9345 40.7798 26.4031 40.3801 26.0036ZM39.6757 28.2921L33.4825 34.4854C33.2709 34.697 32.9897 34.8136 32.6905 34.8136C32.3913 34.8136 32.11 34.697 31.8984 34.4855C31.4616 34.0486 31.4616 33.338 31.8984 32.9012L35.3292 29.4704C35.4716 29.328 35.5142 29.1137 35.4371 28.9277C35.3601 28.7416 35.1785 28.6202 34.9771 28.6202H18.1162C17.4985 28.6202 16.996 28.1177 16.996 27.5C16.996 26.8823 17.4985 26.3798 18.1162 26.3798H34.9771C35.1786 26.3798 35.3601 26.2584 35.4372 26.0723C35.5143 25.8863 35.4716 25.672 35.3292 25.5296L31.8984 22.0988C31.6873 21.8877 31.5709 21.6063 31.5709 21.3067C31.5709 21.0071 31.6873 20.7258 31.8984 20.5146C32.11 20.3031 32.3913 20.1865 32.6905 20.1865C32.9897 20.1865 33.271 20.3031 33.4826 20.5146L39.6758 26.708C39.8874 26.9196 40.0039 27.2008 40.0039 27.5001C40.004 27.7993 39.8874 28.0806 39.6757 28.2921Z" fill="white"/>
<path d="M35.7252 23.4356L35.6264 23.3369C35.4318 23.1424 35.1166 23.1424 34.922 23.3369C34.7276 23.5314 34.7276 23.8467 34.922 24.0412L35.0208 24.14C35.1181 24.2372 35.2455 24.2858 35.373 24.2858C35.5004 24.2858 35.6279 24.2373 35.7252 24.14C35.9197 23.9455 35.9197 23.6301 35.7252 23.4356Z" fill="white"/>
<path d="M39.2907 27.0012L36.6894 24.3999C36.4948 24.2054 36.1796 24.2054 35.985 24.3999C35.7906 24.5944 35.7906 24.9097 35.985 25.1042L38.5864 27.7055C38.6837 27.8027 38.8111 27.8514 38.9385 27.8514C39.066 27.8514 39.1935 27.8028 39.2907 27.7055C39.4852 27.511 39.4852 27.1957 39.2907 27.0012Z" fill="white"/>
</svg>
