<svg width="18" height="16" viewBox="0 0 18 16" fill="none" xmlns="http://www.w3.org/2000/svg">
<path fill-rule="evenodd" clip-rule="evenodd" d="M13.28 6C12.7037 6 12.2359 6.448 12.2359 7C12.2359 7.552 12.7037 8 13.28 8C13.8564 8 14.3242 7.552 14.3242 7C14.3242 6.448 13.8564 6 13.28 6ZM9.10337 13C8.49358 13 7.90467 12.932 7.33873 12.8165L4.88078 14.2315L4.91367 11.912C3.02947 10.827 1.79423 9.033 1.79423 7C1.79423 3.6865 5.06664 1 9.10337 1C13.1401 1 16.4125 3.6865 16.4125 7C16.4125 10.314 13.1401 13 9.10337 13ZM9.10337 0C4.49026 0 0.750061 3.1345 0.750061 7C0.750061 9.2095 1.97434 11.177 3.88255 12.4595V16L7.54183 13.8735C8.04825 13.9535 8.56928 14 9.10337 14C13.7165 14 17.4567 10.866 17.4567 7C17.4567 3.1345 13.7165 0 9.10337 0ZM4.92672 6C4.35034 6 3.88255 6.448 3.88255 7C3.88255 7.552 4.35034 8 4.92672 8C5.5031 8 5.97088 7.552 5.97088 7C5.97088 6.448 5.5031 6 4.92672 6ZM9.10337 6C8.527 6 8.05921 6.448 8.05921 7C8.05921 7.552 8.527 8 9.10337 8C9.67975 8 10.1475 7.552 10.1475 7C10.1475 6.448 9.67975 6 9.10337 6Z" fill="#49945A"/>
</svg>
