<svg width="25" height="25" viewBox="0 0 25 25" fill="none" xmlns="http://www.w3.org/2000/svg">
<path d="M14.5833 17.7083H20.8333M17.7083 20.8333V14.5833" stroke="#B3B9B3" stroke-miterlimit="10" stroke-linecap="round"/>
<path d="M8.75002 4.16675H5.83335C5.39133 4.16675 4.9674 4.34234 4.65484 4.6549C4.34228 4.96746 4.16669 5.39139 4.16669 5.83341V8.75008C4.16669 8.96895 4.2098 9.18568 4.29355 9.38789C4.37731 9.5901 4.50008 9.77383 4.65484 9.92859C4.80961 10.0834 4.99334 10.2061 5.19555 10.2899C5.39776 10.3736 5.61448 10.4167 5.83335 10.4167H8.75002C8.96889 10.4167 9.18562 10.3736 9.38783 10.2899C9.59004 10.2061 9.77377 10.0834 9.92853 9.92859C10.0833 9.77383 10.2061 9.5901 10.2898 9.38789C10.3736 9.18568 10.4167 8.96895 10.4167 8.75008V5.83341C10.4167 5.39139 10.2411 4.96746 9.92853 4.6549C9.61597 4.34234 9.19205 4.16675 8.75002 4.16675Z" fill="white" stroke="#B3B9B3" stroke-miterlimit="10"/>
<path d="M8.75002 14.5834H5.83335C5.39133 14.5834 4.9674 14.759 4.65484 15.0716C4.34228 15.3841 4.16669 15.8081 4.16669 16.2501V19.1667C4.16669 19.6088 4.34228 20.0327 4.65484 20.3453C4.9674 20.6578 5.39133 20.8334 5.83335 20.8334H8.75002C9.19205 20.8334 9.61597 20.6578 9.92853 20.3453C10.2411 20.0327 10.4167 19.6088 10.4167 19.1667V16.2501C10.4167 15.8081 10.2411 15.3841 9.92853 15.0716C9.61597 14.759 9.19205 14.5834 8.75002 14.5834ZM19.1667 4.16675H16.25C15.808 4.16675 15.3841 4.34234 15.0715 4.6549C14.7589 4.96746 14.5834 5.39139 14.5834 5.83341V8.75008C14.5834 9.19211 14.7589 9.61603 15.0715 9.92859C15.3841 10.2412 15.808 10.4167 16.25 10.4167H19.1667C19.6087 10.4167 20.0326 10.2412 20.3452 9.92859C20.6578 9.61603 20.8334 9.19211 20.8334 8.75008V5.83341C20.8334 5.39139 20.6578 4.96746 20.3452 4.6549C20.0326 4.34234 19.6087 4.16675 19.1667 4.16675Z" fill="white" stroke="#B3B9B3" stroke-miterlimit="10"/>
</svg>
