<svg width="25" height="25" viewBox="0 0 25 25" fill="none" xmlns="http://www.w3.org/2000/svg">
<path d="M14.5833 17.7084H20.8333M17.7083 20.8334V14.5834" stroke="#49945A" stroke-miterlimit="10" stroke-linecap="round"/>
<path d="M8.75002 4.16663H5.83335C5.39133 4.16663 4.9674 4.34222 4.65484 4.65478C4.34228 4.96734 4.16669 5.39127 4.16669 5.83329V8.74996C4.16669 8.96883 4.2098 9.18556 4.29355 9.38776C4.37731 9.58997 4.50008 9.77371 4.65484 9.92847C4.80961 10.0832 4.99334 10.206 5.19555 10.2898C5.39776 10.3735 5.61448 10.4166 5.83335 10.4166H8.75002C8.96889 10.4166 9.18562 10.3735 9.38783 10.2898C9.59004 10.206 9.77377 10.0832 9.92853 9.92847C10.0833 9.77371 10.2061 9.58997 10.2898 9.38776C10.3736 9.18556 10.4167 8.96883 10.4167 8.74996V5.83329C10.4167 5.39127 10.2411 4.96734 9.92853 4.65478C9.61597 4.34222 9.19205 4.16663 8.75002 4.16663Z" fill="white" stroke="#49945A" stroke-miterlimit="10"/>
<path d="M8.75002 14.5833H5.83335C5.39133 14.5833 4.9674 14.7589 4.65484 15.0714C4.34228 15.384 4.16669 15.8079 4.16669 16.25V19.1666C4.16669 19.6087 4.34228 20.0326 4.65484 20.3451C4.9674 20.6577 5.39133 20.8333 5.83335 20.8333H8.75002C9.19205 20.8333 9.61597 20.6577 9.92853 20.3451C10.2411 20.0326 10.4167 19.6087 10.4167 19.1666V16.25C10.4167 15.8079 10.2411 15.384 9.92853 15.0714C9.61597 14.7589 9.19205 14.5833 8.75002 14.5833ZM19.1667 4.16663H16.25C15.808 4.16663 15.3841 4.34222 15.0715 4.65478C14.7589 4.96734 14.5834 5.39127 14.5834 5.83329V8.74996C14.5834 9.19199 14.7589 9.61591 15.0715 9.92847C15.3841 10.241 15.808 10.4166 16.25 10.4166H19.1667C19.6087 10.4166 20.0326 10.241 20.3452 9.92847C20.6578 9.61591 20.8334 9.19199 20.8334 8.74996V5.83329C20.8334 5.39127 20.6578 4.96734 20.3452 4.65478C20.0326 4.34222 19.6087 4.16663 19.1667 4.16663Z" fill="#D4F3DB" stroke="#49945A" stroke-miterlimit="10"/>
</svg>
