<svg width="15" height="15" viewBox="0 0 15 15" fill="none" xmlns="http://www.w3.org/2000/svg">
<path fill-rule="evenodd" clip-rule="evenodd" d="M12.2504 4.33226C12.2504 5.60013 11.2221 6.62838 9.95425 6.62838C8.68638 6.62838 7.65869 5.60013 7.65869 4.33226C7.65869 3.06438 8.68638 2.03613 9.95425 2.03613C11.2221 2.03613 12.2504 3.06438 12.2504 4.33226Z" stroke="#49945A" stroke-linecap="round" stroke-linejoin="round"/>
<path fill-rule="evenodd" clip-rule="evenodd" d="M5.59169 4.33226C5.59169 5.60013 4.564 6.62838 3.29556 6.62838C2.02825 6.62838 1 5.60013 1 4.33226C1 3.06438 2.02825 2.03613 3.29556 2.03613C4.564 2.03613 5.59169 3.06438 5.59169 4.33226Z" stroke="#49945A" stroke-linecap="round" stroke-linejoin="round"/>
<path fill-rule="evenodd" clip-rule="evenodd" d="M12.2504 10.9499C12.2504 12.2178 11.2221 13.2455 9.95425 13.2455C8.68638 13.2455 7.65869 12.2178 7.65869 10.9499C7.65869 9.68206 8.68638 8.65381 9.95425 8.65381C11.2221 8.65381 12.2504 9.68206 12.2504 10.9499Z" stroke="#49945A" stroke-linecap="round" stroke-linejoin="round"/>
<path fill-rule="evenodd" clip-rule="evenodd" d="M5.59169 10.9499C5.59169 12.2178 4.564 13.2455 3.29556 13.2455C2.02825 13.2455 1 12.2178 1 10.9499C1 9.68206 2.02825 8.65381 3.29556 8.65381C4.564 8.65381 5.59169 9.68206 5.59169 10.9499Z" stroke="#49945A" stroke-linecap="round" stroke-linejoin="round"/>
</svg>
