<svg width="233" height="187" viewBox="0 0 233 187" fill="none" xmlns="http://www.w3.org/2000/svg">
<path fill-rule="evenodd" clip-rule="evenodd" d="M223.673 72.7195C222.226 72.418 220.627 72.4411 219.152 72.4657C211.242 72.5686 203.475 76.1393 198.42 81.8448C194.117 86.702 192.933 92.741 192.083 98.8456C191.999 99.4515 191.963 100.054 191.916 100.661C191.905 100.792 191.89 100.908 191.874 101.018C191.539 101.302 191.364 101.635 191.562 102C190.825 103.537 190.202 105.112 189.668 106.738C188.094 111.522 186.494 116.398 187.479 121.428C187.71 118.66 188.195 115.829 188.774 113.106C188.807 112.949 188.843 112.794 188.881 112.64C188.885 112.624 188.888 112.607 188.892 112.591C189.097 111.757 189.364 110.948 189.688 110.152C189.691 110.143 189.695 110.135 189.698 110.126C189.741 110.021 189.786 109.917 189.831 109.813C189.924 109.597 190.02 109.382 190.121 109.168C190.155 109.095 190.188 109.021 190.22 108.947C190.692 107.843 190.891 106.6 191.314 105.459C191.415 105.199 191.521 104.94 191.632 104.683C191.638 104.668 191.645 104.653 191.652 104.638C191.951 103.946 192.282 103.262 192.632 102.585C192.822 102.449 192.924 102.111 193.088 101.804C193.122 101.743 193.387 101.339 193.466 101.107C193.672 100.727 193.877 100.346 194.085 99.9668C194.079 99.9692 194.072 99.9712 194.066 99.9737C194.274 99.609 194.482 99.2463 194.689 98.8848C194.734 98.8055 194.78 98.7262 194.826 98.6464C194.9 98.5198 194.974 98.3931 195.048 98.2668C195.741 97.0845 196.476 95.9261 197.239 94.7818C197.511 94.3734 198.161 93.7877 198.286 93.3295C198.291 93.3121 198.292 93.2963 198.295 93.2801C199.95 91.0629 201.856 89.018 204.141 87.3978C203.865 87.6827 203.278 88.6489 203.123 88.8403C202.647 89.426 202.132 89.9712 201.614 90.5233C200.687 91.5121 199.782 92.5321 198.977 93.6108C197.506 95.5836 196.237 97.6596 195.037 99.7778C195.026 99.7899 195.013 99.8016 195.003 99.8146C194.4 100.523 194.02 101.594 193.586 102.405C195.304 101.647 197.203 101.152 198.966 100.479C200.724 99.8073 202.434 99.0593 204.085 98.1814C206.279 97.0141 208.556 95.6966 210.629 94.2054C213.005 92.8001 215.001 90.8657 216.764 88.8359C218.849 86.434 220.76 84.0115 221.942 81.0952C222.522 79.6624 222.979 78.168 223.25 76.6562C223.262 76.5907 223.277 76.519 223.293 76.4449C223.57 75.9228 223.818 75.3889 224.026 74.8429C224.356 73.9767 225.135 73.0239 223.673 72.7195Z" fill="#1B6E53"/>
<path fill-rule="evenodd" clip-rule="evenodd" d="M5.98247 108.476C5.42003 108.476 4.85929 108.487 4.29771 108.515C3.8694 108.536 3.21528 108.452 2.8532 108.706C2.47668 108.97 2.50257 109.511 2.56158 109.893C2.8723 111.914 3.63085 113.705 5.21798 115.137C7.66171 117.341 10.4629 118.461 13.7776 118.959C16.1063 119.31 18.2559 118.823 19.9699 117.245C21.2226 119.461 22.1726 121.914 22.6493 124.389C22.8844 125.611 22.9562 126.818 22.915 128.062C22.8882 128.858 22.8424 129.653 22.7528 130.446C22.7138 130.791 22.5296 131.312 22.6709 131.638C22.8369 132.02 23.3968 132.057 23.6481 131.731C23.8573 131.46 23.8191 130.927 23.862 130.606C23.9333 130.072 23.9991 129.538 24.0462 129.002C24.1231 128.135 24.1795 127.265 24.1757 126.394C24.1659 124.438 23.7096 122.474 23.0856 120.617C21.8886 117.054 19.9466 113.887 16.926 111.403C15.0685 109.875 12.9427 109.257 10.5312 108.925C9.02939 108.718 7.50338 108.476 5.98247 108.476Z" fill="#27AE60"/>
<path fill-rule="evenodd" clip-rule="evenodd" d="M14.6553 122.643C8.58562 122.643 4.49788 127.308 2.56522 132.156C1.83638 133.983 1.66574 135.99 1.38473 137.908C1.29474 138.524 1.32828 139.463 1.06595 140.011C0.970868 140.21 0.752683 140.281 0.857106 140.553C0.920353 140.717 1.04388 140.817 1.23022 140.85C1.61183 140.917 2.15177 140.52 2.47905 140.364C5.19402 139.065 6.97769 137.058 8.43281 134.602C9.33525 133.079 10.2504 131.499 10.7861 129.828C11.1134 128.806 11.304 127.731 11.4161 126.672C11.4602 126.255 11.5027 125.828 11.5001 125.408C11.4976 124.992 11.2942 124.772 11.1482 124.41C13.1734 123.679 15.4597 123.479 17.5112 124.237C19.4086 124.937 20.9847 126.291 21.8672 127.992C22.0964 128.434 22.2734 128.901 22.402 129.377C22.4865 129.688 22.4903 130.092 22.647 130.374C23.0256 131.057 23.8228 130.601 23.7464 129.965C23.5329 128.192 22.4691 126.411 21.1091 125.178C19.3937 123.623 17.0693 122.643 14.6553 122.643Z" fill="#27AE60"/>
<path d="M85.3008 20.2379H24.6001C22.7246 20.2379 21.2042 21.6877 21.2042 23.476V139.237C21.2042 141.026 22.7246 142.476 24.6001 142.476H85.3008C87.1763 142.476 88.6966 141.026 88.6966 139.237V23.476C88.6966 21.6877 87.1763 20.2379 85.3008 20.2379Z" fill="#1B6E53"/>
<path fill-rule="evenodd" clip-rule="evenodd" d="M54.7383 134.785C58.2547 134.785 61.1056 132.067 61.1056 128.714C61.1056 125.361 58.2547 122.642 54.7383 122.642C51.222 122.642 48.3711 125.361 48.3711 128.714C48.3711 132.067 51.222 134.785 54.7383 134.785Z" fill="white"/>
<path fill-rule="evenodd" clip-rule="evenodd" d="M49.2201 28.3328C49.6892 28.3328 50.0691 27.9705 50.0691 27.5233C50.0691 27.076 49.6892 26.7137 49.2201 26.7137C48.751 26.7137 48.3711 27.076 48.3711 27.5233C48.3711 27.9705 48.751 28.3328 49.2201 28.3328Z" fill="white"/>
<path d="M60.2563 26.7135H53.0401C52.5712 26.7135 52.1911 27.0759 52.1911 27.523C52.1911 27.9701 52.5712 28.3325 53.0401 28.3325H60.2563C60.7251 28.3325 61.1052 27.9701 61.1052 27.523C61.1052 27.0759 60.7251 26.7135 60.2563 26.7135Z" fill="white"/>
<path d="M81.0562 31.571H28.8451C27.9074 31.571 27.1472 32.2959 27.1472 33.1901V51.809C27.1472 52.7032 27.9074 53.4281 28.8451 53.4281H81.0562C81.994 53.4281 82.7541 52.7032 82.7541 51.809V33.1901C82.7541 32.2959 81.994 31.571 81.0562 31.571Z" fill="white"/>
<mask id="mask0_1_532" style="mask-type:luminance" maskUnits="userSpaceOnUse" x="30" y="38" width="32" height="9">
<path d="M61.954 38.1278H30.9669V46.8706H61.954V38.1278Z" fill="white"/>
</mask>
<g mask="url(#mask0_1_532)">
<path d="M60.6805 38.1278H32.2403C31.537 38.1278 30.9669 38.6714 30.9669 39.3421V40.1921C30.9669 40.8627 31.537 41.4063 32.2403 41.4063H60.6805C61.3838 41.4063 61.954 40.8627 61.954 40.1921V39.3421C61.954 38.6714 61.3838 38.1278 60.6805 38.1278Z" fill="#1B6E53"/>
<path d="M50.4929 43.5922H32.2402C31.5369 43.5922 30.9668 44.1359 30.9668 44.8065V45.6565C30.9668 46.3271 31.5369 46.8708 32.2402 46.8708H50.4929C51.1962 46.8708 51.7663 46.3271 51.7663 45.6565V44.8065C51.7663 44.1359 51.1962 43.5922 50.4929 43.5922Z" fill="#1B6E53"/>
</g>
<path fill-rule="evenodd" clip-rule="evenodd" d="M76.8114 45.3329C78.4525 45.3329 79.7828 44.0644 79.7828 42.4996C79.7828 40.9348 78.4525 39.6663 76.8114 39.6663C75.1704 39.6663 73.8401 40.9348 73.8401 42.4996C73.8401 44.0644 75.1704 45.3329 76.8114 45.3329Z" fill="#1B6E53"/>
<path fill-rule="evenodd" clip-rule="evenodd" d="M76.8112 43.7138C77.5146 43.7138 78.0847 43.1702 78.0847 42.4995C78.0847 41.8288 77.5146 41.2852 76.8112 41.2852C76.1079 41.2852 75.5378 41.8288 75.5378 42.4995C75.5378 43.1702 76.1079 43.7138 76.8112 43.7138Z" fill="#F1FBF8"/>
<path d="M81.056 56.6659H28.8449C27.9071 56.6659 27.147 57.3907 27.147 58.2849V72.0468C27.147 72.9409 27.9071 73.6658 28.8449 73.6658H81.056C81.9937 73.6658 82.7539 72.9409 82.7539 72.0468V58.2849C82.7539 57.3907 81.9937 56.6659 81.056 56.6659Z" fill="white"/>
<mask id="mask1_1_532" style="mask-type:luminance" maskUnits="userSpaceOnUse" x="43" y="61" width="32" height="8">
<path d="M74.6885 61.7659H43.7014V68.5659H74.6885V61.7659Z" fill="white"/>
</mask>
<g mask="url(#mask1_1_532)">
<path d="M73.4151 61.7659H44.9749C44.2716 61.7659 43.7014 62.3096 43.7014 62.9802V63.1016C43.7014 63.7722 44.2716 64.3159 44.9749 64.3159H73.4151C74.1184 64.3159 74.6885 63.7722 74.6885 63.1016V62.9802C74.6885 62.3096 74.1184 61.7659 73.4151 61.7659Z" fill="#1B6E53"/>
<path d="M63.2273 66.0161H44.9747C44.2714 66.0161 43.7012 66.5597 43.7012 67.2303V67.3518C43.7012 68.0224 44.2714 68.566 44.9747 68.566H63.2273C63.9307 68.566 64.5008 68.0224 64.5008 67.3518V67.2303C64.5008 66.5597 63.9307 66.0161 63.2273 66.0161Z" fill="#1B6E53"/>
</g>
<path fill-rule="evenodd" clip-rule="evenodd" d="M36.0604 70.023C38.8735 70.023 41.1542 67.8482 41.1542 65.1658C41.1542 62.4835 38.8735 60.3087 36.0604 60.3087C33.2474 60.3087 30.9667 62.4835 30.9667 65.1658C30.9667 67.8482 33.2474 70.023 36.0604 70.023Z" fill="#F2C94C"/>
<path d="M81.056 76.9042H28.8449C27.9071 76.9042 27.147 77.629 27.147 78.5232V92.2851C27.147 93.1792 27.9071 93.9041 28.8449 93.9041H81.056C81.9937 93.9041 82.7539 93.1792 82.7539 92.2851V78.5232C82.7539 77.629 81.9937 76.9042 81.056 76.9042Z" fill="white"/>
<mask id="mask2_1_532" style="mask-type:luminance" maskUnits="userSpaceOnUse" x="30" y="82" width="32" height="7">
<path d="M61.9537 82.0042H30.9667V88.8042H61.9537V82.0042Z" fill="white"/>
</mask>
<g mask="url(#mask2_1_532)">
<path d="M60.6803 82.0042H32.2401C31.5368 82.0042 30.9667 82.5479 30.9667 83.2185V83.3399C30.9667 84.0106 31.5368 84.5542 32.2401 84.5542H60.6803C61.3836 84.5542 61.9537 84.0106 61.9537 83.3399V83.2185C61.9537 82.5479 61.3836 82.0042 60.6803 82.0042Z" fill="#1B6E53"/>
<path d="M50.4926 86.2544H32.24C31.5367 86.2544 30.9665 86.7981 30.9665 87.4687V87.5901C30.9665 88.2608 31.5367 88.8044 32.24 88.8044H50.4926C51.1959 88.8044 51.7661 88.2608 51.7661 87.5901V87.4687C51.7661 86.7981 51.1959 86.2544 50.4926 86.2544Z" fill="#FAF004"/>
</g>
<path fill-rule="evenodd" clip-rule="evenodd" d="M76.8112 88.2375C78.4522 88.2375 79.7825 86.969 79.7825 85.4042C79.7825 83.8394 78.4522 82.5709 76.8112 82.5709C75.1701 82.5709 73.8398 83.8394 73.8398 85.4042C73.8398 86.969 75.1701 88.2375 76.8112 88.2375Z" fill="#1B6E53"/>
<path fill-rule="evenodd" clip-rule="evenodd" d="M76.811 86.6186C77.5144 86.6186 78.0844 86.075 78.0844 85.4043C78.0844 84.7336 77.5144 84.19 76.811 84.19C76.1076 84.19 75.5376 84.7336 75.5376 85.4043C75.5376 86.075 76.1076 86.6186 76.811 86.6186Z" fill="#F1FBF8"/>
<path d="M81.056 97.1421H28.8449C27.9071 97.1421 27.147 97.867 27.147 98.7611V112.523C27.147 113.417 27.9071 114.142 28.8449 114.142H81.056C81.9937 114.142 82.7539 113.417 82.7539 112.523V98.7611C82.7539 97.867 81.9937 97.1421 81.056 97.1421Z" fill="white"/>
<mask id="mask3_1_532" style="mask-type:luminance" maskUnits="userSpaceOnUse" x="43" y="102" width="32" height="8">
<path d="M74.6885 102.242H43.7014V109.042H74.6885V102.242Z" fill="white"/>
</mask>
<g mask="url(#mask3_1_532)">
<path d="M73.4151 102.242H44.9749C44.2716 102.242 43.7014 102.786 43.7014 103.456V103.578C43.7014 104.249 44.2716 104.792 44.9749 104.792H73.4151C74.1184 104.792 74.6885 104.249 74.6885 103.578V103.456C74.6885 102.786 74.1184 102.242 73.4151 102.242Z" fill="#1B6E53"/>
<path d="M63.2273 106.492H44.9747C44.2714 106.492 43.7012 107.036 43.7012 107.707V107.828C43.7012 108.499 44.2714 109.042 44.9747 109.042H63.2273C63.9307 109.042 64.5008 108.499 64.5008 107.828V107.707C64.5008 107.036 63.9307 106.492 63.2273 106.492Z" fill="#1B6E53"/>
</g>
<path fill-rule="evenodd" clip-rule="evenodd" d="M36.0604 110.499C38.8735 110.499 41.1542 108.325 41.1542 105.642C41.1542 102.96 38.8735 100.785 36.0604 100.785C33.2474 100.785 30.9667 102.96 30.9667 105.642C30.9667 108.325 33.2474 110.499 36.0604 110.499Z" fill="#F2C94C"/>
<path d="M188.025 30.3573H52.6158C50.7403 30.3573 49.2199 31.807 49.2199 33.5954V167.166C49.2199 168.955 50.7403 170.404 52.6158 170.404H188.025C189.9 170.404 191.421 168.955 191.421 167.166V33.5954C191.421 31.807 189.9 30.3573 188.025 30.3573Z" fill="#F1FBF8"/>
<path d="M181.233 47.7615H158.311C156.436 47.7615 154.915 49.2112 154.915 50.9996V77.309C154.915 79.0973 156.436 80.5471 158.311 80.5471H181.233C183.109 80.5471 184.629 79.0973 184.629 77.309V50.9996C184.629 49.2112 183.109 47.7615 181.233 47.7615Z" fill="white"/>
<path fill-rule="evenodd" clip-rule="evenodd" d="M169.772 66.7856C173.523 66.7856 176.564 63.8863 176.564 60.3094C176.564 56.7325 173.523 53.8332 169.772 53.8332C166.021 53.8332 162.981 56.7325 162.981 60.3094C162.981 63.8863 166.021 66.7856 169.772 66.7856Z" fill="#1B6E53"/>
<path d="M179.111 68.4042H160.434C159.73 68.4042 159.16 68.9478 159.16 69.6185C159.16 70.2891 159.73 70.8327 160.434 70.8327H179.111C179.814 70.8327 180.384 70.2891 180.384 69.6185C180.384 68.9478 179.814 68.4042 179.111 68.4042Z" fill="#1B6E53"/>
<path d="M175.715 72.4521H163.829C163.126 72.4521 162.556 72.9958 162.556 73.6664C162.556 74.3371 163.126 74.8807 163.829 74.8807H175.715C176.418 74.8807 176.988 74.3371 176.988 73.6664C176.988 72.9958 176.418 72.4521 175.715 72.4521Z" fill="#1B6E53"/>
<path d="M49.2199 33.5954C49.2199 31.8071 50.7404 30.3573 52.6158 30.3573H188.025C189.9 30.3573 191.421 31.8071 191.421 33.5954V41.2858H49.2199V33.5954Z" fill="#F2C94C"/>
<path fill-rule="evenodd" clip-rule="evenodd" d="M54.7376 37.6427C55.6753 37.6427 56.4355 36.9178 56.4355 36.0237C56.4355 35.1296 55.6753 34.4046 54.7376 34.4046C53.7999 34.4046 53.0397 35.1296 53.0397 36.0237C53.0397 36.9178 53.7999 37.6427 54.7376 37.6427Z" fill="#F1FBF8"/>
<path fill-rule="evenodd" clip-rule="evenodd" d="M59.8312 37.6427C60.7689 37.6427 61.5291 36.9178 61.5291 36.0237C61.5291 35.1296 60.7689 34.4046 59.8312 34.4046C58.8935 34.4046 58.1333 35.1296 58.1333 36.0237C58.1333 36.9178 58.8935 37.6427 59.8312 37.6427Z" fill="#F1FBF8"/>
<path fill-rule="evenodd" clip-rule="evenodd" d="M64.9253 37.6427C65.863 37.6427 66.6232 36.9178 66.6232 36.0237C66.6232 35.1296 65.863 34.4046 64.9253 34.4046C63.9876 34.4046 63.2274 35.1296 63.2274 36.0237C63.2274 36.9178 63.9876 37.6427 64.9253 37.6427Z" fill="#F1FBF8"/>
<path d="M181.233 83.7853H158.311C156.436 83.7853 154.915 85.235 154.915 87.0234V159.071C154.915 160.859 156.436 162.309 158.311 162.309H181.233C183.109 162.309 184.629 160.859 184.629 159.071V87.0234C184.629 85.235 183.109 83.7853 181.233 83.7853Z" fill="white"/>
<path d="M175.291 91.071H164.254C163.317 91.071 162.556 91.7958 162.556 92.69V99.9757C162.556 100.87 163.317 101.595 164.254 101.595H175.291C176.229 101.595 176.989 100.87 176.989 99.9757V92.69C176.989 91.7958 176.229 91.071 175.291 91.071Z" fill="#1B6E53"/>
<path d="M175.291 104.832H164.254C163.316 104.832 162.556 105.557 162.556 106.451V113.332C162.556 114.226 163.316 114.951 164.254 114.951H175.291C176.228 114.951 176.989 114.226 176.989 113.332V106.451C176.989 105.557 176.228 104.832 175.291 104.832Z" fill="#FAF004"/>
<path d="M175.291 118.19H164.254C163.316 118.19 162.556 118.914 162.556 119.809V126.689C162.556 127.584 163.316 128.309 164.254 128.309H175.291C176.228 128.309 176.989 127.584 176.989 126.689V119.809C176.989 118.914 176.228 118.19 175.291 118.19Z" fill="#1B6E53"/>
<path d="M175.291 144.904H164.254C163.316 144.904 162.556 145.629 162.556 146.523V153.404C162.556 154.298 163.316 155.023 164.254 155.023H175.291C176.228 155.023 176.989 154.298 176.989 153.404V146.523C176.989 145.629 176.228 144.904 175.291 144.904Z" fill="#1B6E53"/>
<path d="M175.291 131.547H164.254C163.316 131.547 162.556 132.272 162.556 133.166V140.047C162.556 140.941 163.316 141.666 164.254 141.666H175.291C176.228 141.666 176.989 140.941 176.989 140.047V133.166C176.989 132.272 176.228 131.547 175.291 131.547Z" fill="#F2C94C"/>
<path d="M149.822 48.1667H57.7095C56.7718 48.1667 56.0116 48.8916 56.0116 49.7858V65.5714C56.0116 66.4656 56.7718 67.1905 57.7095 67.1905H149.822C150.759 67.1905 151.52 66.4656 151.52 65.5714V49.7858C151.52 48.8916 150.759 48.1667 149.822 48.1667Z" fill="white"/>
<mask id="mask4_1_532" style="mask-type:luminance" maskUnits="userSpaceOnUse" x="59" y="53" width="72" height="9">
<path d="M130.72 53.8736H59.8317V61.4831H130.72V53.8736Z" fill="white"/>
</mask>
<g mask="url(#mask4_1_532)">
<path d="M129.446 53.8736H61.1051C60.4018 53.8736 59.8317 54.4173 59.8317 55.0879V55.5129C59.8317 56.1835 60.4018 56.7272 61.1051 56.7272H129.446C130.15 56.7272 130.72 56.1835 130.72 55.5129V55.0879C130.72 54.4173 130.15 53.8736 129.446 53.8736Z" fill="#1B6E53"/>
<path d="M106.141 58.6294H61.1049C60.4016 58.6294 59.8315 59.1731 59.8315 59.8437V60.2687C59.8315 60.9393 60.4016 61.483 61.1049 61.483H106.141C106.844 61.483 107.414 60.9393 107.414 60.2687V59.8437C107.414 59.1731 106.844 58.6294 106.141 58.6294Z" fill="#1B6E53"/>
</g>
<path fill-rule="evenodd" clip-rule="evenodd" d="M141.313 60.5113C142.954 60.5113 144.284 59.2428 144.284 57.678C144.284 56.1132 142.954 54.8447 141.313 54.8447C139.672 54.8447 138.342 56.1132 138.342 57.678C138.342 59.2428 139.672 60.5113 141.313 60.5113Z" fill="#1B6E53"/>
<path fill-rule="evenodd" clip-rule="evenodd" d="M141.313 58.8928C142.016 58.8928 142.586 58.3492 142.586 57.6785C142.586 57.0078 142.016 56.4642 141.313 56.4642C140.61 56.4642 140.04 57.0078 140.04 57.6785C140.04 58.3492 140.61 58.8928 141.313 58.8928Z" fill="#F1FBF8"/>
<path d="M149.822 70.4279H57.7097C56.7719 70.4279 56.0117 71.1528 56.0117 72.047V84.5945C56.0117 85.4887 56.7719 86.2136 57.7097 86.2136H149.822C150.76 86.2136 151.52 85.4887 151.52 84.5945V72.047C151.52 71.1528 150.76 70.4279 149.822 70.4279Z" fill="white"/>
<mask id="mask5_1_532" style="mask-type:luminance" maskUnits="userSpaceOnUse" x="59" y="75" width="72" height="7">
<path d="M130.72 75.1634H59.8318V81.4777H130.72V75.1634Z" fill="white"/>
</mask>
<g mask="url(#mask5_1_532)">
<path d="M129.478 75.1634H61.0734C60.3877 75.1634 59.8318 75.6935 59.8318 76.3473C59.8318 77.0012 60.3877 77.5312 61.0734 77.5312H129.478C130.164 77.5312 130.72 77.0012 130.72 76.3473C130.72 75.6935 130.164 75.1634 129.478 75.1634Z" fill="#1B6E53"/>
<path d="M106.173 79.1102H61.0732C60.3875 79.1102 59.8316 79.6403 59.8316 80.2941C59.8316 80.948 60.3875 81.478 61.0732 81.478H106.173C106.858 81.478 107.414 80.948 107.414 80.2941C107.414 79.6403 106.858 79.1102 106.173 79.1102Z" fill="#1B6E53"/>
</g>
<path fill-rule="evenodd" clip-rule="evenodd" d="M141.313 81.154C142.954 81.154 144.285 79.8855 144.285 78.3207C144.285 76.7559 142.954 75.4873 141.313 75.4873C139.672 75.4873 138.342 76.7559 138.342 78.3207C138.342 79.8855 139.672 81.154 141.313 81.154Z" fill="#1B6E53"/>
<path fill-rule="evenodd" clip-rule="evenodd" d="M141.313 79.5351C142.016 79.5351 142.587 78.9915 142.587 78.3208C142.587 77.6501 142.016 77.1065 141.313 77.1065C140.61 77.1065 140.04 77.6501 140.04 78.3208C140.04 78.9915 140.61 79.5351 141.313 79.5351Z" fill="#F1FBF8"/>
<path d="M149.822 89.4517H57.7097C56.7719 89.4517 56.0117 90.1766 56.0117 91.0708V103.618C56.0117 104.513 56.7719 105.237 57.7097 105.237H149.822C150.76 105.237 151.52 104.513 151.52 103.618V91.0708C151.52 90.1766 150.76 89.4517 149.822 89.4517Z" fill="white"/>
<mask id="mask6_1_532" style="mask-type:luminance" maskUnits="userSpaceOnUse" x="59" y="94" width="72" height="7">
<path d="M130.72 94.1875H59.8318V100.502H130.72V94.1875Z" fill="white"/>
</mask>
<g mask="url(#mask6_1_532)">
<path d="M129.478 94.1875H61.0734C60.3877 94.1875 59.8318 94.7175 59.8318 95.3714C59.8318 96.0253 60.3877 96.5553 61.0734 96.5553H129.478C130.164 96.5553 130.72 96.0253 130.72 95.3714C130.72 94.7175 130.164 94.1875 129.478 94.1875Z" fill="#1B6E53"/>
<path d="M106.173 98.1341H61.0732C60.3875 98.1341 59.8316 98.6641 59.8316 99.318C59.8316 99.9718 60.3875 100.502 61.0732 100.502H106.173C106.858 100.502 107.414 99.9718 107.414 99.318C107.414 98.6641 106.858 98.1341 106.173 98.1341Z" fill="#1B6E53"/>
</g>
<path fill-rule="evenodd" clip-rule="evenodd" d="M141.313 100.178C142.954 100.178 144.285 98.9091 144.285 97.3443C144.285 95.7795 142.954 94.511 141.313 94.511C139.672 94.511 138.342 95.7795 138.342 97.3443C138.342 98.9091 139.672 100.178 141.313 100.178Z" fill="#1B6E53"/>
<path fill-rule="evenodd" clip-rule="evenodd" d="M141.313 98.5583C142.016 98.5583 142.587 98.0147 142.587 97.344C142.587 96.6734 142.016 96.1298 141.313 96.1298C140.61 96.1298 140.04 96.6734 140.04 97.344C140.04 98.0147 140.61 98.5583 141.313 98.5583Z" fill="#FAF004"/>
<path d="M149.822 146.523H57.7097C56.7719 146.523 56.0117 147.248 56.0117 148.142V160.69C56.0117 161.584 56.7719 162.309 57.7097 162.309H149.822C150.76 162.309 151.52 161.584 151.52 160.69V148.142C151.52 147.248 150.76 146.523 149.822 146.523Z" fill="white"/>
<mask id="mask7_1_532" style="mask-type:luminance" maskUnits="userSpaceOnUse" x="59" y="151" width="72" height="7">
<path d="M130.72 151.259H59.8318V157.573H130.72V151.259Z" fill="white"/>
</mask>
<g mask="url(#mask7_1_532)">
<path d="M129.478 151.259H61.0734C60.3877 151.259 59.8318 151.789 59.8318 152.443C59.8318 153.097 60.3877 153.627 61.0734 153.627H129.478C130.164 153.627 130.72 153.097 130.72 152.443C130.72 151.789 130.164 151.259 129.478 151.259Z" fill="#1B6E53"/>
<path d="M106.173 155.206H61.0732C60.3875 155.206 59.8316 155.736 59.8316 156.39C59.8316 157.043 60.3875 157.573 61.0732 157.573H106.173C106.858 157.573 107.414 157.043 107.414 156.39C107.414 155.736 106.858 155.206 106.173 155.206Z" fill="#1B6E53"/>
</g>
<path fill-rule="evenodd" clip-rule="evenodd" d="M141.313 157.249C142.954 157.249 144.285 155.981 144.285 154.416C144.285 152.851 142.954 151.582 141.313 151.582C139.672 151.582 138.342 152.851 138.342 154.416C138.342 155.981 139.672 157.249 141.313 157.249Z" fill="#1B6E53"/>
<path fill-rule="evenodd" clip-rule="evenodd" d="M141.313 155.63C142.016 155.63 142.587 155.087 142.587 154.416C142.587 153.745 142.016 153.202 141.313 153.202C140.61 153.202 140.04 153.745 140.04 154.416C140.04 155.087 140.61 155.63 141.313 155.63Z" fill="#F1FBF8"/>
<path d="M149.822 127.499H57.7097C56.7719 127.499 56.0117 128.224 56.0117 129.118V141.666C56.0117 142.56 56.7719 143.285 57.7097 143.285H149.822C150.76 143.285 151.52 142.56 151.52 141.666V129.118C151.52 128.224 150.76 127.499 149.822 127.499Z" fill="white"/>
<mask id="mask8_1_532" style="mask-type:luminance" maskUnits="userSpaceOnUse" x="59" y="132" width="72" height="7">
<path d="M130.72 132.235H59.8318V138.55H130.72V132.235Z" fill="white"/>
</mask>
<g mask="url(#mask8_1_532)">
<path d="M129.478 132.235H61.0734C60.3877 132.235 59.8318 132.765 59.8318 133.419C59.8318 134.073 60.3877 134.603 61.0734 134.603H129.478C130.164 134.603 130.72 134.073 130.72 133.419C130.72 132.765 130.164 132.235 129.478 132.235Z" fill="#1B6E53"/>
<path d="M106.173 136.182H61.0732C60.3875 136.182 59.8316 136.712 59.8316 137.366C59.8316 138.019 60.3875 138.55 61.0732 138.55H106.173C106.858 138.55 107.414 138.019 107.414 137.366C107.414 136.712 106.858 136.182 106.173 136.182Z" fill="#1B6E53"/>
</g>
<path fill-rule="evenodd" clip-rule="evenodd" d="M141.313 138.225C142.954 138.225 144.285 136.957 144.285 135.392C144.285 133.827 142.954 132.559 141.313 132.559C139.672 132.559 138.342 133.827 138.342 135.392C138.342 136.957 139.672 138.225 141.313 138.225Z" fill="#1B6E53"/>
<path fill-rule="evenodd" clip-rule="evenodd" d="M141.313 136.606C142.016 136.606 142.587 136.063 142.587 135.392C142.587 134.721 142.016 134.178 141.313 134.178C140.61 134.178 140.04 134.721 140.04 135.392C140.04 136.063 140.61 136.606 141.313 136.606Z" fill="#F1FBF8"/>
<path d="M149.822 108.476H57.7097C56.7719 108.476 56.0117 109.201 56.0117 110.095V122.643C56.0117 123.537 56.7719 124.262 57.7097 124.262H149.822C150.76 124.262 151.52 123.537 151.52 122.643V110.095C151.52 109.201 150.76 108.476 149.822 108.476Z" fill="white"/>
<mask id="mask9_1_532" style="mask-type:luminance" maskUnits="userSpaceOnUse" x="59" y="113" width="72" height="7">
<path d="M130.72 113.212H59.8318V119.526H130.72V113.212Z" fill="white"/>
</mask>
<g mask="url(#mask9_1_532)">
<path d="M129.478 113.212H61.0734C60.3877 113.212 59.8318 113.742 59.8318 114.395C59.8318 115.049 60.3877 115.579 61.0734 115.579H129.478C130.164 115.579 130.72 115.049 130.72 114.395C130.72 113.742 130.164 113.212 129.478 113.212Z" fill="#1B6E53"/>
<path d="M106.173 117.158H61.0732C60.3875 117.158 59.8316 117.688 59.8316 118.342C59.8316 118.996 60.3875 119.526 61.0732 119.526H106.173C106.858 119.526 107.414 118.996 107.414 118.342C107.414 117.688 106.858 117.158 106.173 117.158Z" fill="#1B6E53"/>
</g>
<path fill-rule="evenodd" clip-rule="evenodd" d="M141.313 119.202C142.954 119.202 144.285 117.934 144.285 116.369C144.285 114.804 142.954 113.535 141.313 113.535C139.672 113.535 138.342 114.804 138.342 116.369C138.342 117.934 139.672 119.202 141.313 119.202Z" fill="#1B6E53"/>
<path fill-rule="evenodd" clip-rule="evenodd" d="M141.313 117.583C142.016 117.583 142.587 117.039 142.587 116.368C142.587 115.698 142.016 115.154 141.313 115.154C140.61 115.154 140.04 115.698 140.04 116.368C140.04 117.039 140.61 117.583 141.313 117.583Z" fill="#F1FBF8"/>
<path fill-rule="evenodd" clip-rule="evenodd" d="M226.647 99.3189C224.972 98.2362 222.746 97.9525 220.742 97.9525C212.917 97.9525 205.561 100.721 199.206 104.846C195.724 107.107 192.609 109.985 189.86 112.982C188.272 114.712 186.857 116.584 185.855 118.665C185.179 120.07 184.715 121.534 184.4 123.044C184.017 124.884 183.712 126.761 183.574 128.632C183.52 129.369 183.071 133.277 184.356 133.344C184.348 133.44 184.347 133.532 184.355 133.614C181.565 137.773 179.842 142.646 178.244 147.266C176.854 151.287 175.615 155.342 174.811 159.502C173.752 164.978 173.057 170.536 172.726 176.091C172.655 177.285 172.606 178.48 172.564 179.675C172.529 180.694 172.492 181.714 172.457 182.734C172.418 183.877 172.207 185.192 172.398 186.328C172.564 187.317 173.462 187.167 173.501 186.183C173.549 184.994 173.541 183.803 173.596 182.613C173.669 181.034 173.743 179.455 173.825 177.877C174.389 166.911 176.505 156.106 180.41 145.748C181.991 141.556 183.802 137.589 186.13 133.711C188.176 130.302 190.638 127.001 193.154 123.927C195.6 120.94 198.143 118.022 201.139 115.491C203.571 113.437 206.246 111.648 208.996 109.983C212.488 107.868 215.974 105.805 219.757 104.182C221.724 103.339 223.727 102.583 225.709 101.773C226.066 101.628 226.448 101.487 226.791 101.318C227.935 100.755 227.558 99.9083 226.647 99.3189Z" fill="#6FCF97"/>
<path fill-rule="evenodd" clip-rule="evenodd" d="M195.164 137.619C198.337 137.619 201.162 138.012 204.086 139.215C206.61 140.253 208.911 141.627 211.145 143.123C214.286 145.227 216.761 147.676 218.493 150.921C219.528 152.859 220.288 155.602 219.592 157.717C218.774 160.207 216.526 162.284 213.565 161.845C211.734 161.574 210.056 160.419 208.665 159.331C207 158.03 205.668 156.465 204.567 154.728C202.773 151.893 201.718 148.689 200.194 145.727C199.47 144.321 198.771 142.906 197.904 141.57C197.476 140.908 197.019 140.253 196.368 139.761C196.02 139.498 194.552 139.043 195.113 138.453C186.883 138.556 179.591 144.583 178.011 152.045C177.864 152.74 177.749 153.441 177.627 154.141C177.551 154.582 177.582 156.212 177.167 156.494C176.254 157.117 176.638 155.225 176.677 154.953C176.778 154.249 176.886 153.546 177 152.844C177.617 149.025 179.4 145.475 182.373 142.752C185.772 139.638 190.36 137.619 195.164 137.619Z" fill="#27AE60"/>
<path d="M157.887 14.1667C157.887 13.4961 157.316 12.9524 156.613 12.9524C155.91 12.9524 155.34 13.4961 155.34 14.1667V21.8572C155.34 22.5278 155.91 23.0714 156.613 23.0714C157.316 23.0714 157.887 22.5278 157.887 21.8572V14.1667Z" fill="#1B6E53"/>
<path d="M163.829 7.6909C163.829 7.02028 163.259 6.47662 162.556 6.47662C161.853 6.47662 161.283 7.02028 161.283 7.6909V21.8575C161.283 22.5281 161.853 23.0718 162.556 23.0718C163.259 23.0718 163.829 22.5281 163.829 21.8575V7.6909Z" fill="#1B6E53"/>
<path d="M169.772 4.45217C169.772 3.78154 169.202 3.23788 168.499 3.23788C167.796 3.23788 167.226 3.78154 167.226 4.45217V21.8569C167.226 22.5275 167.796 23.0711 168.499 23.0711C169.202 23.0711 169.772 22.5275 169.772 21.8569V4.45217Z" fill="#1B6E53"/>
<path d="M175.715 7.6909C175.715 7.02028 175.145 6.47662 174.442 6.47662C173.738 6.47662 173.168 7.02028 173.168 7.6909V21.8575C173.168 22.5281 173.738 23.0718 174.442 23.0718C175.145 23.0718 175.715 22.5281 175.715 21.8575V7.6909Z" fill="#1B6E53"/>
<path d="M181.658 1.21428C181.658 0.543652 181.088 0 180.384 0C179.681 0 179.111 0.543652 179.111 1.21428V21.8571C179.111 22.5277 179.681 23.0713 180.384 23.0713C181.088 23.0713 181.658 22.5277 181.658 21.8571V1.21428Z" fill="#F2C94C"/>
<path fill-rule="evenodd" clip-rule="evenodd" d="M222.733 127.572C221.918 128.398 220.762 128.916 219.477 128.916C217.008 128.916 215.006 127.013 215.006 124.666C215.006 122.319 217.008 120.416 219.477 120.416V112.523C212.452 112.523 206.702 117.989 206.702 124.666C206.702 131.344 212.452 136.809 219.477 136.809C223.167 136.809 226.502 135.325 228.775 132.965L222.733 127.572Z" fill="#F1FBF8"/>
<path fill-rule="evenodd" clip-rule="evenodd" d="M219.436 112.523V120.416C221.897 120.416 223.893 122.319 223.893 124.666H232.17C232.17 117.989 226.439 112.523 219.436 112.523Z" fill="#FAF004"/>
<path fill-rule="evenodd" clip-rule="evenodd" d="M223.722 124.666C223.722 126.045 223.041 127.27 221.983 128.062L227.188 134.38C230.218 132.118 232.171 128.612 232.171 124.666H223.722Z" fill="#F2C94C"/>
<path fill-rule="evenodd" clip-rule="evenodd" d="M141.778 15.9901C141.151 16.6231 140.262 17.0207 139.274 17.0207C137.374 17.0207 135.834 15.5619 135.834 13.7623C135.834 11.9628 137.374 10.504 139.274 10.504V4.45285C133.87 4.45285 129.447 8.64305 129.447 13.7623C129.447 18.8816 133.87 23.0718 139.274 23.0718C142.112 23.0718 144.677 21.934 146.426 20.1244L141.778 15.9901Z" fill="#F1FBF8"/>
<path fill-rule="evenodd" clip-rule="evenodd" d="M139.21 4.45285V10.504C141.097 10.504 142.627 11.9628 142.627 13.7623H148.973C148.973 8.64305 144.579 4.45285 139.21 4.45285Z" fill="#FAF004"/>
<path fill-rule="evenodd" clip-rule="evenodd" d="M142.636 13.7617C142.636 14.7959 142.125 15.7153 141.332 16.3089L145.235 21.0474C147.508 19.3509 148.973 16.7213 148.973 13.7617H142.636Z" fill="#F2C94C"/>
</svg>
