<svg width="25" height="25" viewBox="0 0 25 25" fill="none" xmlns="http://www.w3.org/2000/svg">
<path d="M11.75 10.374C11.75 10.7882 12.0858 11.124 12.5 11.124C12.9142 11.124 13.25 10.7882 13.25 10.374H11.75ZM13.25 4.5C13.25 4.08579 12.9142 3.75 12.5 3.75C12.0858 3.75 11.75 4.08579 11.75 4.5H13.25ZM9.8108 7.16156C10.1878 6.98991 10.3542 6.54515 10.1826 6.16818C10.0109 5.79121 9.56613 5.62478 9.18916 5.79644L9.8108 7.16156ZM5.49998 12.66L4.74988 12.6561L4.75003 12.6687L5.49998 12.66ZM12.5 19.5L12.5086 18.75C12.5029 18.75 12.4971 18.75 12.4914 18.75L12.5 19.5ZM19.5 12.66L20.2501 12.6687L20.25 12.6561L19.5 12.66ZM15.8108 5.79644C15.4338 5.62478 14.9891 5.79121 14.8174 6.16818C14.6458 6.54515 14.8122 6.98991 15.1892 7.16156L15.8108 5.79644ZM13.25 10.374V4.5H11.75V10.374H13.25ZM9.18916 5.79644C6.49841 7.02171 4.76537 9.69951 4.74988 12.6561L6.24997 12.6639C6.2624 10.2924 7.65244 8.1444 9.8108 7.16156L9.18916 5.79644ZM4.75003 12.6687C4.79933 16.9046 8.27276 20.2986 12.5086 20.25L12.4914 18.75C9.08382 18.7892 6.28959 16.0588 6.24993 12.6513L4.75003 12.6687ZM12.4914 20.25C16.7272 20.2986 20.2009 16.9046 20.2501 12.6687L18.7501 12.6513C18.7104 16.0588 15.9162 18.7892 12.5086 18.75L12.4914 20.25ZM20.25 12.6561C20.2345 9.69951 18.5016 7.02171 15.8108 5.79644L15.1892 7.16156C17.3475 8.1444 18.7376 10.2924 18.75 12.6639L20.25 12.6561Z" fill="#49945A"/>
</svg>
