<svg width="38" height="33" viewBox="0 0 38 33" fill="none" xmlns="http://www.w3.org/2000/svg">
<g clip-path="url(#clip0_151_418)">
<path d="M27.3128 33C21.4228 33 16.6253 28.2589 16.6253 22.4381C16.6253 16.6173 21.4228 11.8762 27.3128 11.8762C33.2028 11.8762 38.0003 16.6173 38.0003 22.4381C38.0003 28.2589 33.2028 33 27.3128 33ZM27.3128 14.2233C22.7291 14.2233 19.0003 17.9082 19.0003 22.4381C19.0003 26.968 22.7291 30.6529 27.3128 30.6529C31.8966 30.6529 35.6253 26.968 35.6253 22.4381C35.6253 17.9082 31.8966 14.2233 27.3128 14.2233Z" fill="#A2AAB1"/>
<path d="M28.5003 16.5586H26.1253V23.5998H28.5003V16.5586Z" fill="#A2AAB1"/>
<path d="M28.5003 25.947H26.1253V28.2941H28.5003V25.947Z" fill="#A2AAB1"/>
<path d="M19.0002 28.165H10.6877C4.79768 28.165 0.000183105 23.4239 0.000183105 17.6031C0.000183105 11.7824 4.69081 7.14687 10.4977 7.04125C12.3739 2.79303 16.6371 0 21.3752 0C27.9183 0 33.2502 5.2692 33.2502 11.7354C33.2502 12.2635 33.2027 12.8151 33.1077 13.4488L30.7564 13.1085C30.8396 12.5921 30.8752 12.1579 30.8752 11.7472C30.8752 6.57184 26.6121 2.35882 21.3752 2.35882C17.3496 2.35882 13.7514 4.88193 12.4214 8.649L12.1246 9.48222L11.0914 9.41181C10.9608 9.41181 10.8302 9.38834 10.6877 9.38834C6.10393 9.38834 2.37518 13.0733 2.37518 17.6031C2.37518 22.133 6.10393 25.8179 10.6877 25.8179H19.0002V28.165Z" fill="#A2AAB1"/>
</g>
<defs>
<clipPath id="clip0_151_418">
<rect width="38" height="33" fill="white"/>
</clipPath>
</defs>
</svg>
