<svg width="21" height="24" viewBox="0 0 21 24" fill="none" xmlns="http://www.w3.org/2000/svg">
<path d="M13.4863 20.3436C13.4863 20.6848 13.399 21.0228 13.2294 21.3381C13.0598 21.6535 12.8113 21.94 12.4978 22.1813C12.1845 22.4226 11.8125 22.6141 11.4031 22.7447C10.9937 22.8752 10.5548 22.9425 10.1117 22.9425C9.66857 22.9425 9.22982 22.8752 8.82032 22.7447C8.41093 22.6141 8.03894 22.4226 7.72559 22.1813C7.41224 21.94 7.16367 21.6535 6.99408 21.3381C6.8245 21.0228 6.73721 20.6848 6.73721 20.3436" stroke="#49945A" stroke-width="2" stroke-linecap="round"/>
<path d="M18.0494 10.5911C18.1616 11.5296 18.4213 12.4468 18.8208 13.3084L19.1186 13.9504C20.2542 16.3994 18.7752 19.262 16.1207 19.7526L15.9404 19.7859C12.0873 20.4981 8.13621 20.4981 4.28304 19.7859C1.60676 19.2912 0.190895 16.3303 1.48595 13.9367L1.74066 13.4659C2.43611 12.1804 2.80029 10.742 2.80029 9.28045V7.794C2.80029 5.29223 4.21626 3.006 6.45602 1.8914C8.40361 0.922215 10.6331 0.742001 12.6887 1.35735" stroke="#49945A" stroke-width="2" stroke-linecap="round"/>
<path d="M17.0011 7.92029C18.5544 7.92029 19.8136 6.66109 19.8136 5.10779C19.8136 3.55449 18.5544 2.29529 17.0011 2.29529C15.4478 2.29529 14.1886 3.55449 14.1886 5.10779C14.1886 6.66109 15.4478 7.92029 17.0011 7.92029Z" stroke="#49945A" stroke-width="2"/>
</svg>
