<svg width="25" height="25" viewBox="0 0 25 25" fill="none" xmlns="http://www.w3.org/2000/svg">
<path d="M18.0417 9.33325C19.3533 9.33325 20.4167 8.26993 20.4167 6.95825C20.4167 5.64658 19.3533 4.58325 18.0417 4.58325C16.73 4.58325 15.6667 5.64658 15.6667 6.95825C15.6667 8.26993 16.73 9.33325 18.0417 9.33325Z" stroke="#B3B9B3"/>
<path d="M8.54166 14.0833H15.6667" stroke="#B3B9B3" stroke-linecap="round"/>
<path d="M8.54166 16.8542H13.2917" stroke="#B3B9B3" stroke-linecap="round"/>
<path d="M4.58334 12.4999C4.58334 16.2318 4.58334 18.0979 5.74272 19.2572C6.90208 20.4166 8.76805 20.4166 12.5 20.4166C16.2319 20.4166 18.098 20.4166 19.2573 19.2572C20.4167 18.0979 20.4167 16.2318 20.4167 12.4999V11.3124M13.6875 4.58325H12.5C8.76805 4.58325 6.90208 4.58325 5.74272 5.74262C4.97184 6.5135 4.71353 7.59677 4.62696 9.33325" stroke="#B3B9B3" stroke-linecap="round"/>
</svg>
