<svg width="25" height="25" viewBox="0 0 25 25" fill="none" xmlns="http://www.w3.org/2000/svg">
<path d="M18.9037 18.9037L18.9037 18.9038C18.4324 19.3751 17.7992 19.6388 16.7767 19.7762C15.7399 19.9156 14.3801 19.9167 12.5 19.9167C10.6199 19.9167 9.26011 19.9156 8.22327 19.7762C7.2008 19.6388 6.56757 19.3751 6.09627 18.9038L6.09626 18.9037C5.62497 18.4325 5.36127 17.7992 5.22381 16.7768C5.08441 15.7399 5.08334 14.3801 5.08334 12.5C5.08334 10.6199 5.08441 9.26014 5.22381 8.2233C5.36127 7.20083 5.62497 6.5676 6.09627 6.0963L6.09627 6.0963C6.56757 5.625 7.2008 5.3613 8.22326 5.22384C9.26011 5.08444 10.6199 5.08337 12.5 5.08337C14.3801 5.08337 15.7399 5.08444 16.7767 5.22384C17.7992 5.3613 18.4324 5.625 18.9037 6.09629L18.9037 6.0963C19.375 6.5676 19.6387 7.20083 19.7762 8.2233C19.9156 9.26014 19.9167 10.6199 19.9167 12.5C19.9167 14.3801 19.9156 15.7399 19.7762 16.7768C19.6387 17.7992 19.375 18.4325 18.9037 18.9037Z" fill="#D4F3DB" stroke="#49945A"/>
<path d="M8.54169 16.2604C8.21377 16.2604 7.94794 16.5262 7.94794 16.8541C7.94794 17.182 8.21377 17.4479 8.54169 17.4479H13.2917C13.6196 17.4479 13.8854 17.182 13.8854 16.8541C13.8854 16.5262 13.6196 16.2604 13.2917 16.2604H8.54169Z" fill="#49945A"/>
<path d="M8.54169 13.4896C8.21377 13.4896 7.94794 13.7555 7.94794 14.0834C7.94794 14.4113 8.21377 14.6771 8.54169 14.6771H15.6667C15.9946 14.6771 16.2604 14.4113 16.2604 14.0834C16.2604 13.7555 15.9946 13.4896 15.6667 13.4896H8.54169Z" fill="#49945A"/>
<path d="M20.4167 6.95837C20.4167 8.27005 19.3534 9.33337 18.0417 9.33337C16.73 9.33337 15.6667 8.27005 15.6667 6.95837C15.6667 5.6467 16.73 4.58337 18.0417 4.58337C19.3534 4.58337 20.4167 5.6467 20.4167 6.95837Z" fill="#49945A"/>
</svg>
