<svg width="113" height="125" viewBox="0 0 113 125" fill="none" xmlns="http://www.w3.org/2000/svg">
<g clip-path="url(#clip0_1_326)">
<rect x="2" y="3" width="108" height="119" rx="11" stroke="url(#paint0_linear_1_326)" stroke-width="6"/>
<path d="M82.6978 35H43.8779C41.6564 35 39.8489 36.6864 39.8489 38.7591V47.1713C32.4848 49.1377 27.0791 55.4755 27.0791 62.9694C27.0791 70.4633 32.4847 76.8011 39.8489 78.7675V93.2409C39.8489 95.3136 41.6564 97 43.8779 97H75.6013C75.9776 97 76.3385 96.8605 76.6047 96.6123L86.3111 87.5559C86.5772 87.3077 86.7266 86.9709 86.7266 86.6197V38.7591C86.7266 36.6864 84.9193 35 82.6978 35ZM43.8779 37.648H82.6978C83.3543 37.648 83.8886 38.1464 83.8886 38.7591V42.7549H42.687V38.7591C42.687 38.1464 43.2213 37.648 43.8779 37.648ZM29.9172 62.9693C29.9172 55.3705 36.543 49.1885 44.6873 49.1885C52.8317 49.1885 59.4575 55.3705 59.4575 62.9693C59.4575 70.5681 52.8317 76.7502 44.6873 76.7502C36.543 76.7502 29.9172 70.5681 29.9172 62.9693ZM42.687 93.2408V79.2915C43.3438 79.3611 44.0111 79.3982 44.6875 79.3982C49.9764 79.3982 54.7278 77.2108 57.9582 73.7552H66.6529C67.4367 73.7552 68.072 73.1625 68.072 72.4312C68.072 71.7 67.4367 71.1072 66.6529 71.1072H59.9793C61.2136 69.096 62.0043 66.8194 62.2286 64.3938H66.6528C67.4365 64.3938 68.0718 63.801 68.0718 63.0698C68.0718 62.3386 67.4365 61.7458 66.6528 61.7458H62.2466C62.0547 59.3255 61.2979 57.0498 60.0997 55.0324H66.6527C67.4364 55.0324 68.0717 54.4396 68.0717 53.7084C68.0717 52.9772 67.4364 52.3844 66.6527 52.3844H58.142C54.9095 48.8131 50.0778 46.5404 44.6871 46.5404C44.0106 46.5404 43.3434 46.5774 42.6866 46.647V45.4029H83.8882V85.2955H78.2108C75.9891 85.2955 74.1819 86.9818 74.1819 89.0544V94.3518H43.8779C43.2213 94.3518 42.687 93.8535 42.687 93.2408ZM77.0204 92.4793V89.0546C77.0204 88.4419 77.5547 87.9436 78.2112 87.9436H81.8818L77.0204 92.4793Z" fill="url(#paint1_linear_1_326)"/>
<path d="M71.9617 55.0322H76.6742C77.458 55.0322 78.0933 54.4395 78.0933 53.7083C78.0933 52.977 77.458 52.3843 76.6742 52.3843H71.9617C71.178 52.3843 70.5427 52.977 70.5427 53.7083C70.5427 54.4395 71.178 55.0322 71.9617 55.0322Z" fill="#49945A"/>
<path d="M71.9617 68.9741H76.6742C77.458 68.9741 78.0933 68.3814 78.0933 67.6502C78.0933 66.9189 77.458 66.3262 76.6742 66.3262H71.9617C71.178 66.3262 70.5427 66.9189 70.5427 67.6502C70.5427 68.3814 71.178 68.9741 71.9617 68.9741Z" fill="#49945A"/>
<path d="M72.2285 73.7553H76.941C77.7248 73.7553 78.3601 73.1625 78.3601 72.4313C78.3601 71.7001 77.7248 71.1073 76.941 71.1073H72.2285C71.4448 71.1073 70.8095 71.7001 70.8095 72.4313C70.8095 73.1625 71.4448 73.7553 72.2285 73.7553Z" fill="#49945A"/>
<path d="M76.8426 82.6793C77.6263 82.6793 78.2616 82.0866 78.2616 81.3554C78.2616 80.6241 77.6263 80.0314 76.8426 80.0314H63.5678C62.7841 80.0314 62.1488 80.6241 62.1488 81.3554C62.1488 82.0866 62.7841 82.6793 63.5678 82.6793H76.8426Z" fill="#49945A"/>
<path d="M55.7044 56.2903L53.9732 54.6751C53.507 54.2402 52.8872 54.0006 52.2278 54.0006C51.5684 54.0006 50.9486 54.2402 50.4824 54.6751L41.4019 63.1473L38.8918 60.8054C38.4257 60.3706 37.8058 60.131 37.1465 60.131C36.4873 60.131 35.8674 60.3706 35.4013 60.8055L33.6696 62.421C32.7074 63.3189 32.7074 64.78 33.6698 65.6779L39.6563 71.2634C40.1226 71.6985 40.7425 71.9381 41.4019 71.9381C42.0611 71.9381 42.6812 71.6985 43.1472 71.2636L55.7046 59.5474C56.6668 58.6494 56.6668 57.1883 55.7044 56.2903ZM41.4018 69.1471L35.9379 64.0494L37.1464 62.9219L40.3983 65.9559C40.9525 66.4731 41.851 66.4731 42.4052 65.9559L52.2278 56.7913L53.4363 57.9189L41.4018 69.1471Z" fill="#49945A"/>
</g>
<defs>
<linearGradient id="paint0_linear_1_326" x1="56.2921" y1="0" x2="56.2921" y2="124.849" gradientUnits="userSpaceOnUse">
<stop stop-color="#C2FFA6"/>
<stop offset="1" stop-color="#6FCF97"/>
</linearGradient>
<linearGradient id="paint1_linear_1_326" x1="57.0557" y1="35" x2="57.0557" y2="96.9249" gradientUnits="userSpaceOnUse">
<stop stop-color="#C2FFA6"/>
<stop offset="1" stop-color="#6FCF97"/>
</linearGradient>
<clipPath id="clip0_1_326">
<rect width="113" height="125" fill="white"/>
</clipPath>
</defs>
</svg>
