<svg width="113" height="125" viewBox="0 0 113 125" fill="none" xmlns="http://www.w3.org/2000/svg">
<g clip-path="url(#clip0_1_443)">
<path d="M40.5 82.765C40.5 73.3075 51.75 75.2 51.75 71.4175C51.8757 70.0743 51.5117 68.7309 50.725 67.635C49.8278 66.7843 49.1211 65.7532 48.6514 64.6096C48.1817 63.4659 47.9597 62.2357 48 61C47.8779 58.8808 48.5973 56.7991 50.0017 55.2074C51.4062 53.6157 53.3821 52.6427 55.5 52.5C57.6179 52.6427 59.5938 53.6157 60.9983 55.2074C62.4027 56.7991 63.1221 58.8808 63 61C63.045 62.2393 62.8214 63.4737 62.3446 64.6186C61.8677 65.7634 61.1489 66.7915 60.2375 67.6325C59.4825 68.7429 59.1337 70.0798 59.25 71.4175C59.25 75.2 70.5 73.31 70.5 82.7675C70.5 82.7675 67.5125 85.0025 55.5 85.0025C43.4875 85.0025 40.5 82.765 40.5 82.765Z" stroke="#49945A" stroke-width="3.75" stroke-miterlimit="10"/>
<path d="M39.215 72.4175C37.7925 72.3525 36.5375 72.255 35.435 72.1325C32.8472 72.0811 30.3049 71.4426 28 70.265C28 60.8075 39.25 62.7 39.25 58.9175C39.3757 57.5743 39.0117 56.2309 38.225 55.135C37.3278 54.2843 36.6211 53.2532 36.1514 52.1096C35.6817 50.9659 35.4597 49.7357 35.5 48.5C35.3779 46.3808 36.0973 44.2991 37.5017 42.7074C38.9062 41.1157 40.8821 40.1427 43 40C45.1179 40.1427 47.0938 41.1157 48.4983 42.7074C49.9027 44.2991 50.6221 46.3808 50.5 48.5" stroke="url(#paint0_linear_1_443)" stroke-width="3.75" stroke-miterlimit="10"/>
<path d="M71.7852 72.4175C73.2077 72.3525 74.4627 72.255 75.5652 72.1325C78.1529 72.0811 80.6952 71.4426 83.0002 70.265C83.0002 60.8075 71.7502 62.7 71.7502 58.9175C71.6244 57.5743 71.9885 56.2309 72.7752 55.135C73.6723 54.2843 74.3791 53.2532 74.8488 52.1096C75.3185 50.9659 75.5405 49.7357 75.5002 48.5C75.6222 46.3808 74.9029 44.2991 73.4984 42.7074C72.094 41.1157 70.1181 40.1427 68.0002 40C65.8823 40.1427 63.9063 41.1157 62.5019 42.7074C61.0975 44.2991 60.3781 46.3808 60.5002 48.5" stroke="url(#paint1_linear_1_443)" stroke-width="3.75" stroke-miterlimit="10"/>
<rect x="2" y="3" width="108" height="119" rx="11" stroke="url(#paint2_linear_1_443)" stroke-width="6"/>
</g>
<defs>
<linearGradient id="paint0_linear_1_443" x1="39.3143" y1="40" x2="39.3143" y2="72.3782" gradientUnits="userSpaceOnUse">
<stop stop-color="#C2FFA6"/>
<stop offset="1" stop-color="#6FCF97"/>
</linearGradient>
<linearGradient id="paint1_linear_1_443" x1="71.8012" y1="40" x2="71.8012" y2="72.3782" gradientUnits="userSpaceOnUse">
<stop stop-color="#C2FFA6"/>
<stop offset="1" stop-color="#6FCF97"/>
</linearGradient>
<linearGradient id="paint2_linear_1_443" x1="56.2921" y1="0" x2="56.2921" y2="124.849" gradientUnits="userSpaceOnUse">
<stop stop-color="#C2FFA6"/>
<stop offset="1" stop-color="#6FCF97"/>
</linearGradient>
<clipPath id="clip0_1_443">
<rect width="113" height="125" fill="white"/>
</clipPath>
</defs>
</svg>
