<svg width="113" height="125" viewBox="0 0 113 125" fill="none" xmlns="http://www.w3.org/2000/svg">
<g clip-path="url(#clip0_1_490)">
<g clip-path="url(#clip1_1_490)">
<path d="M79.8416 47.6888H48.9534V46.4733C48.9534 44.6905 47.4961 43.2401 45.7048 43.2401H40.6637C38.8724 43.2401 37.415 44.6905 37.415 46.4733V47.6888H32.323C31.6053 47.6888 31.0236 48.268 31.0236 48.9822C31.0236 49.6964 31.6053 50.2755 32.323 50.2755H37.4148V51.4906C37.4148 53.2734 38.8722 54.7238 40.6635 54.7238H45.7047C47.496 54.7238 48.9533 53.2734 48.9533 51.4906V50.2755H79.8416C80.5593 50.2755 81.141 49.6963 81.141 48.9822C81.1411 48.268 80.5593 47.6888 79.8416 47.6888ZM46.3546 51.4906C46.3546 51.8472 46.0631 52.1373 45.7048 52.1373H40.6636C40.3053 52.1373 40.0138 51.8472 40.0138 51.4906V46.4733C40.0138 46.1168 40.3053 45.8266 40.6636 45.8266H45.7048C46.0631 45.8266 46.3546 46.1168 46.3546 46.4733V51.4906Z" fill="url(#paint0_linear_1_490)"/>
<path d="M79.8418 62.0934H74.7498V60.8775C74.7498 59.0947 73.2925 57.6443 71.5012 57.6443H66.46C64.6687 57.6443 63.2113 59.0947 63.2113 60.8775V62.0934H32.323C31.6053 62.0934 31.0236 62.6725 31.0236 63.3867C31.0236 64.1009 31.6053 64.6799 32.323 64.6799H63.2112V65.8947C63.2112 67.6775 64.6686 69.1279 66.4599 69.1279H71.5011C73.2924 69.1279 74.7497 67.6775 74.7497 65.8947V64.6799H79.8417C80.5594 64.6799 81.1411 64.1008 81.1411 63.3867C81.1412 62.6725 80.5595 62.0934 79.8418 62.0934ZM72.1509 65.8948C72.1509 66.2513 71.8594 66.5414 71.5011 66.5414H66.4599C66.1016 66.5414 65.8101 66.2513 65.8101 65.8948V60.8775C65.8101 60.5209 66.1016 60.2308 66.4599 60.2308H71.5011C71.8594 60.2308 72.1509 60.5209 72.1509 60.8775V65.8948Z" fill="#49945A"/>
<path d="M79.8418 77.556H58.0824V76.3409C58.0824 74.5581 56.6251 73.1077 54.8337 73.1077H49.7925C48.0012 73.1077 46.5439 74.5581 46.5439 76.3409V77.556H32.323C31.6053 77.556 31.0236 78.1352 31.0236 78.8493C31.0236 79.5635 31.6053 80.1425 32.323 80.1425H46.5438V81.358C46.5438 83.1409 48.0011 84.5913 49.7924 84.5913H54.8337C56.625 84.5913 58.0823 83.1409 58.0823 81.358V80.1425H79.8417C80.5594 80.1425 81.1411 79.5634 81.1411 78.8493C81.1412 78.135 80.5595 77.556 79.8418 77.556ZM55.4834 81.3581C55.4834 81.7147 55.1919 82.0048 54.8337 82.0048H49.7924C49.4342 82.0048 49.1427 81.7147 49.1427 81.3581V76.3409C49.1427 75.9843 49.4342 75.6942 49.7924 75.6942H54.8337C55.1919 75.6942 55.4834 75.9843 55.4834 76.3409V81.3581Z" fill="url(#paint1_linear_1_490)"/>
</g>
<rect x="2" y="3" width="108" height="119" rx="11" stroke="url(#paint2_linear_1_490)" stroke-width="6"/>
</g>
<defs>
<linearGradient id="paint0_linear_1_490" x1="56.2107" y1="43.2401" x2="56.2107" y2="54.7099" gradientUnits="userSpaceOnUse">
<stop stop-color="#C2FFA6"/>
<stop offset="1" stop-color="#6FCF97"/>
</linearGradient>
<linearGradient id="paint1_linear_1_490" x1="56.2107" y1="73.1077" x2="56.2107" y2="84.5774" gradientUnits="userSpaceOnUse">
<stop stop-color="#C2FFA6"/>
<stop offset="1" stop-color="#6FCF97"/>
</linearGradient>
<linearGradient id="paint2_linear_1_490" x1="56.2921" y1="0" x2="56.2921" y2="124.849" gradientUnits="userSpaceOnUse">
<stop stop-color="#C2FFA6"/>
<stop offset="1" stop-color="#6FCF97"/>
</linearGradient>
<clipPath id="clip0_1_490">
<rect width="113" height="125" fill="white"/>
</clipPath>
<clipPath id="clip1_1_490">
<rect width="50.1176" height="49.8795" fill="white" transform="translate(31.0236 38.976)"/>
</clipPath>
</defs>
</svg>
