<svg width="26" height="25" viewBox="0 0 26 25" fill="none" xmlns="http://www.w3.org/2000/svg">
<path d="M4.66666 8.33329V17.5C4.66666 18.6667 4.66666 19.2498 4.89373 19.6954C5.09346 20.0874 5.41194 20.4067 5.80395 20.6064C6.24916 20.8333 6.83227 20.8333 7.99677 20.8333H18.0032C19.1677 20.8333 19.75 20.8333 20.1952 20.6064C20.5872 20.4067 20.9068 20.0874 21.1064 19.6954C21.3333 19.2502 21.3333 18.6677 21.3333 17.5032V8.33329M4.66666 8.33329H21.3333M4.66666 8.33329L6.08872 5.84464C6.4377 5.23392 6.61216 4.92862 6.85754 4.70628C7.07482 4.50941 7.33185 4.36043 7.61058 4.26945C7.92563 4.16663 8.27731 4.16663 8.98184 4.16663H17.0178C17.7223 4.16663 18.0753 4.16663 18.3903 4.26945C18.6691 4.36043 18.9249 4.50941 19.1422 4.70628C19.3877 4.92879 19.5627 5.23441 19.9122 5.8461L21.3333 8.33329M13 11.4583V17.7083M13 17.7083L16.125 15.625M13 17.7083L9.87499 15.625" stroke="#B3B9B3" stroke-linecap="round" stroke-linejoin="round"/>
</svg>
