<svg width="26" height="25" viewBox="0 0 26 25" fill="none" xmlns="http://www.w3.org/2000/svg">
<path d="M5.00015 8H22.0002V19C22.0002 20.1046 21.1047 21 20.0002 21H7.00015C5.89558 21 5.00015 20.1046 5.00015 19V8Z" fill="#D4F3DB"/>
<path d="M5.00015 8.33317V17.4998C5.00015 18.6666 5.00015 19.2496 5.22723 19.6953C5.42695 20.0872 5.74543 20.4066 6.13744 20.6063C6.58265 20.8332 7.16577 20.8332 8.33027 20.8332H18.3367C19.5012 20.8332 20.0835 20.8332 20.5287 20.6063C20.9207 20.4066 21.2403 20.0872 21.4399 19.6953C21.6668 19.25 21.6668 18.6675 21.6668 17.5031V8.33317M5.00015 8.33317H21.6668M5.00015 8.33317L6.42222 5.84451C6.77119 5.2338 6.94565 4.92849 7.19104 4.70616C7.40832 4.50929 7.66535 4.36031 7.94408 4.26933C8.25912 4.1665 8.61081 4.1665 9.31534 4.1665H17.3513C18.0558 4.1665 18.4088 4.1665 18.7238 4.26933C19.0025 4.36031 19.2584 4.50929 19.4757 4.70616C19.7212 4.92867 19.8962 5.23428 20.2457 5.84598L21.6668 8.33317" stroke="#49945A" stroke-linecap="round" stroke-linejoin="round"/>
<path d="M13.5002 12V17M13.5002 17L12.0002 15.5M13.5002 17L15.0002 15.4998" stroke="#49945A"/>
</svg>
