<svg width="20" height="20" viewBox="0 0 20 20" fill="none" xmlns="http://www.w3.org/2000/svg">
<path d="M3.74875 11.875L7.5 11.875L7.5 15.6087C7.5 16.3081 8.06688 16.875 8.76625 16.875C9.15062 16.875 9.515 16.7 9.755 16.4L14.375 10.625L14.375 4.375L12.5 3.125L4.70438 3.125C4.14688 3.125 3.65688 3.495 3.50375 4.03187L1.9475 9.485C1.60625 10.6825 2.50438 11.875 3.74875 11.875Z" stroke="white" stroke-width="1.5" stroke-miterlimit="10" stroke-linecap="round" stroke-linejoin="round"/>
<path d="M14.375 11.875L18.125 11.875L18.125 3.125L14.375 3.125L14.375 11.875Z" stroke="white" stroke-width="1.5" stroke-miterlimit="10" stroke-linecap="round" stroke-linejoin="round"/>
<path d="M16.25 5C15.9048 5 15.625 5.27982 15.625 5.625C15.625 5.97018 15.9048 6.25 16.25 6.25C16.5952 6.25 16.875 5.97018 16.875 5.625C16.875 5.27982 16.5952 5 16.25 5Z" fill="white"/>
</svg>
